<?xml version="1.0" encoding="UTF-8"?>
<svg width="32px" height="32px" viewBox="0 0 32 32" version="1.1" xmlns="http://www.w3.org/2000/svg" xmlns:xlink="http://www.w3.org/1999/xlink">
    <!-- Generator: Sketch 50.2 (55047) - http://www.bohemiancoding.com/sketch -->
    <title>💟icons/android</title>
    <desc>Created with Sketch.</desc>
    <defs></defs>
    <g id="💟icons/android" stroke="none" stroke-width="1" fill="none" fill-rule="evenodd">
        <path d="M5.04133762,11 C6.11813071,11 6.99857008,11.8508628 7,12.8883535 L7,21.1102668 C7,22.1491372 6.12092555,23 5.04276754,23 L4.95723246,23 C3.87907445,23 3,22.1518965 3,21.1102668 L3,12.8884162 C3,11.8508628 3.87907445,11 4.95723246,11 L5.04133762,11 Z M8,23.3362732 L8,11 L24,11 L24,23.3362732 C24,24.2437876 23.2860758,24.9828973 22.413846,24.9828973 L20.7163618,24.9828973 L20.7163618,29.2029676 C20.7163618,30.1927775 19.9406067,31 18.9879622,31 L18.9149466,31 C17.9659729,31 17.185285,30.194029 17.185285,29.2029676 L17.185285,24.9828973 L14.814715,24.9828973 L14.814715,29.2029676 C14.814715,30.1927775 14.0377553,31 13.0850534,31 L13.0108333,31 C12.0618597,31 11.2836382,30.194029 11.2836382,29.2029676 L11.2836382,24.9828973 L9.58735849,24.9828973 C8.7138668,24.9828973 8,24.2437876 8,23.3362732 Z M19.9570306,3.52143628 C22.3705524,4.71230784 24.000057,6.95675074 24,9.53134477 C24,9.68962699 23.9913976,9.8454441 23.9778958,10 L8.02335758,10 C8.00985576,9.8454441 8,9.68962699 8,9.53134477 C8,6.95675074 9.62825128,4.71230784 12.0430264,3.52143628 L10.7035546,1.4427282 C10.6175303,1.3116194 10.655643,1.13229786 10.7871291,1.04699401 C10.9186152,0.960428947 11.0980698,0.996316185 11.1828407,1.13109398 L12.5677744,3.28157652 C13.6110607,2.85247752 14.7711349,2.61135656 16.0000285,2.61135656 C17.2277257,2.61135656 18.3902496,2.85247752 19.4310862,3.28157652 L20.8184696,1.13109398 C20.9032975,0.996316185 21.0814987,0.960428947 21.2117315,1.04699401 C21.3432176,1.13235519 21.3813303,1.3116194 21.2953061,1.4427282 L19.9570306,3.52143628 Z M12.3010992,7.24361934 C12.7250677,7.24361934 13.0691648,6.89988151 13.0691648,6.47198639 C13.0691648,6.04409127 12.7275174,5.70155733 12.3010992,5.70155733 C11.8771306,5.70155733 11.5330335,6.0441486 11.5330335,6.47198639 C11.5330335,6.89982418 11.8771306,7.24361934 12.3010992,7.24361934 Z M19.6977614,7.24361934 C20.1229264,7.24361934 20.4645737,6.89982418 20.4645737,6.47198639 C20.4645737,6.04409127 20.1229264,5.70155733 19.6977614,5.70155733 C19.2737929,5.70155733 18.9296958,6.0441486 18.9296958,6.47198639 C18.9296958,6.89982418 19.2737929,7.24361934 19.6977614,7.24361934 Z M27.0413376,11 C28.1194956,11 29,11.8508628 29,12.8883535 L29,21.1102668 C29,22.1491372 28.1222905,23 27.0427675,23 L26.9600273,23 C25.8832992,23 25,22.1518965 25,21.1102668 L25,12.8884162 C25,11.8508628 25.8818693,11 26.9600273,11 L27.0413376,11 Z" id="Combined-Shape" fill="#8F8E94" fill-rule="nonzero"></path>
    </g>
</svg>