<?xml version="1.0" encoding="UTF-8"?>
<svg width="32px" height="32px" viewBox="0 0 32 32" version="1.1" xmlns="http://www.w3.org/2000/svg" xmlns:xlink="http://www.w3.org/1999/xlink">
    <!-- Generator: Sketch 50.2 (55047) - http://www.bohemiancoding.com/sketch -->
    <title>💟icons/apple</title>
    <desc>Created with Sketch.</desc>
    <defs></defs>
    <g id="💟icons/apple" stroke="none" stroke-width="1" fill="none" fill-rule="evenodd">
        <path d="M24.0448499,16.408796 C24.0077191,12.7362894 27.0890001,10.974837 27.2267294,10.8874689 C25.4955418,8.39450304 22.7984495,8.05324334 21.8374381,8.01366571 C19.5420205,7.78497923 17.3588589,9.34309173 16.1937,9.34309173 C15.0319952,9.34309173 13.2343895,8.04743767 11.3308602,8.08142204 C8.82913636,8.11795524 6.52227731,9.51265957 5.23399677,11.7171831 C2.63476864,16.1549045 4.56837677,22.7291806 7.10183445,26.3284084 C8.33981571,28.090144 9.81576511,30.0689546 11.7539067,29.9981539 C13.6203052,29.9248751 14.3261502,28.8100462 16.58271,28.8100462 C18.8390538,28.8100462 19.4731558,29.9981539 21.4484282,29.9616207 C23.4568016,29.9248751 24.7292512,28.166184 25.9587413,26.3992092 C27.3802178,24.3554034 27.9654597,22.376522 28,22.2750645 C27.9553135,22.2548862 24.0836358,20.7956824 24.0448499,16.408796 Z M20.3335687,5.63107825 C21.3623653,4.40310973 22.0566969,2.69950164 21.8672291,1 C20.385595,1.05940184 18.5894284,1.97096174 17.5263792,3.19616903 C16.5726357,4.28310243 15.7374805,6.01772125 15.9612727,7.68316772 C17.6154644,7.8101135 19.3039804,6.85600235 20.3335687,5.63107825 Z" id="Fill-1" fill="#8F8E94"></path>
    </g>
</svg>