<?xml version="1.0" encoding="UTF-8"?>
<svg width="32px" height="32px" viewBox="0 0 32 32" version="1.1" xmlns="http://www.w3.org/2000/svg" xmlns:xlink="http://www.w3.org/1999/xlink">
    <!-- Generator: Sketch 50.2 (55047) - http://www.bohemiancoding.com/sketch -->
    <title>💟icons/bag</title>
    <desc>Created with Sketch.</desc>
    <defs>
        <path d="M13.3777778,21.2444444 L13.3777778,19.9333333 L4.21311111,19.9333333 L4.2,25.1777778 C4.2,26.6331111 5.36688889,27.8 6.82222222,27.8 L25.1777778,27.8 C26.6331111,27.8 27.8,26.6331111 27.8,25.1777778 L27.8,19.9333333 L18.6222222,19.9333333 L18.6222222,21.2444444 L13.3777778,21.2444444 L13.3777778,21.2444444 Z M26.4888889,9.44444444 L21.2313333,9.44444444 L21.2313333,6.82222222 L18.6091111,4.2 L13.3646667,4.2 L10.7424444,6.82222222 L10.7424444,9.44444444 L5.51111111,9.44444444 C4.06888889,9.44444444 2.88888889,10.6244444 2.88888889,12.0666667 L2.88888889,16 C2.88888889,17.4553333 4.05577778,18.6222222 5.51111111,18.6222222 L13.3777778,18.6222222 L13.3777778,16 L18.6222222,16 L18.6222222,18.6222222 L26.4888889,18.6222222 C27.9311111,18.6222222 29.1111111,17.4422222 29.1111111,16 L29.1111111,12.0666667 C29.1111111,10.6244444 27.9311111,9.44444444 26.4888889,9.44444444 L26.4888889,9.44444444 Z M18.6222222,9.44444444 L13.3777778,9.44444444 L13.3777778,6.82222222 L18.6222222,6.82222222 L18.6222222,9.44444444 L18.6222222,9.44444444 Z" id="path-1"></path>
    </defs>
    <g id="💟icons/bag" stroke="none" stroke-width="1" fill="none" fill-rule="evenodd">
        <mask id="mask-2" fill="white">
            <use xlink:href="#path-1"></use>
        </mask>
        <use id="Icon" fill="#8F8E94" xlink:href="#path-1"></use>
    </g>
</svg>