<?xml version="1.0" encoding="UTF-8"?>
<svg width="32px" height="32px" viewBox="0 0 32 32" version="1.1" xmlns="http://www.w3.org/2000/svg" xmlns:xlink="http://www.w3.org/1999/xlink">
    <!-- Generator: Sketch 50.2 (55047) - http://www.bohemiancoding.com/sketch -->
    <title>💟icons/ball</title>
    <desc>Created with Sketch.</desc>
    <defs></defs>
    <g id="💟icons/ball" stroke="none" stroke-width="1" fill="none" fill-rule="evenodd">
        <path d="M16.7593224,4.45807882 C16.5079974,4.84075789 16.0477208,5.3972688 15.4375441,6 C13.6488449,4.54164883 12.0394699,3.55468233 11,2.98144186 C12.4573732,2.34890869 14.0363071,2 15.6864962,2 C16.1171453,2 16.5427097,2.02552231 16.9629858,2.07143135 C16.9648842,2.10815858 16.9664435,2.14402988 16.968274,2.18083492 C17.0109186,3.03435397 17.0591226,4.00178967 16.7593224,4.45807882 Z M23.8804869,12.0144384 C25.9882845,11.7820907 28.2743248,14.4013037 30,16.4612567 C29.8496006,20.1719501 28.259186,23.5221165 25.7546596,26 C25.5136554,22.0769061 24.5279574,16.6618367 22,12.3757041 C22.5289464,12.2118417 23.1470521,12.094966 23.8804869,12.0144384 Z M9.65004599,9.26818624 C9.10565208,9.39167117 8.54102357,9.50593065 7.99475866,9.61671168 C6.30620897,9.95880955 4.58730739,10.3099816 3,11 C4.22107498,8.01276872 6.32027618,5.54722912 8.9432902,4 C9.36281168,4.18753376 11.4715065,5.17382521 14,7.07404127 C12.7881415,8.01216377 11.2679132,8.90068057 9.65004599,9.26818624 Z M20,9.5337166 C21.4089923,8.58921823 22.5948387,7.94449837 23.3394827,7.70745017 C24.4745789,7.34607229 25.5881168,7.12840111 26.5870071,7 C28.4173399,9.18063239 29.6454547,11.94529 30,15 C28.3469398,12.9849394 26.4208317,11.1544508 24.2544725,11.416003 C23.3353831,11.5267612 22.5672017,11.713218 21.9147989,11.9759012 C21.4669522,11.2781773 20.9785336,10.618755 20.4401422,10.0158805 C20.2940407,9.85241977 20.1471617,9.69159795 20,9.5337166 Z M18.434571,16.4426456 C18.2009736,17.2223534 17.9168786,18.4259836 17.5881712,19.8193517 C16.9032914,22.7211045 15.7515803,27.6000401 14.5277192,30 C11.1669694,29.5425819 8.18142847,27.9302743 6,25.5789835 C6.65334593,19.9801745 13.8402964,13.5179897 19.0873356,10 C19.3018964,10.2077742 19.5161665,10.419127 19.727603,10.6382811 C20.1851341,11.1113735 20.607789,11.6322046 21,12.1871757 C19.6924362,13.0969303 19.0175107,14.4984576 18.434571,16.4426456 Z M12.3776874,13.578103 C9.27431266,16.2569077 5.64857313,20.0790938 4.59150298,24 C2.96004581,21.8076653 2,19.1436755 2,16.2682612 C2,14.9829611 2.19545268,13.7408596 2.55251405,12.5629332 C4.38688731,11.6039772 6.5681983,11.2213501 8.84047422,10.825985 C9.43023143,10.7231804 10.0404576,10.6171912 10.6359047,10.500887 C12.7632723,10.0866224 14.7175035,9.05116867 16.2101116,8 C16.8000905,8.41973364 17.4007842,8.87754307 18,9.37405135 C16.2028699,10.5314861 14.2379978,11.9717201 12.3776874,13.578103 Z M18.7607404,8 C18.1717779,7.4250281 17.5811576,6.89556184 17,6.41034129 C17.5935903,5.83974209 18.0495234,5.3139815 18.3191048,4.9306669 C18.8865175,4.12320121 18.8640696,3.01209284 18.8119906,2 C21.1498826,2.50197018 23.2675784,3.65309979 25,5.26854997 C24.2502417,5.40603036 23.4586269,5.59420433 22.6516093,5.85300839 C21.7529355,6.14079079 20.3677303,6.90074978 18.7607404,8 Z M19.6716122,16.519048 C20.165824,14.8058196 20.662233,13.7018359 21.584743,13 C23.9628851,17.233655 24.9070119,22.9372324 25,26.9693056 C22.6436874,28.8659023 19.6746598,30 16.4448828,30 C16.2959743,30 16.1478454,29.993179 16,29.9883898 C17.0420762,27.6448008 17.9341098,23.9693056 18.8665422,19.8620565 C19.1824324,18.4708657 19.4551597,17.2693564 19.6716122,16.519048 Z" id="Combined-Shape" fill="#8F8E94"></path>
    </g>
</svg>