<?xml version="1.0" encoding="UTF-8"?>
<svg width="32px" height="32px" viewBox="0 0 32 32" version="1.1" xmlns="http://www.w3.org/2000/svg" xmlns:xlink="http://www.w3.org/1999/xlink">
    <!-- Generator: Sketch 50.2 (55047) - http://www.bohemiancoding.com/sketch -->
    <title>💟icons/book</title>
    <desc>Created with Sketch.</desc>
    <defs></defs>
    <g id="💟icons/book" stroke="none" stroke-width="1" fill="none" fill-rule="evenodd">
        <path d="M6.61941434,5 C8.96032529,5.00557312 13.2180075,5.55019702 15.4334704,9.13537094 C15.5238686,9.28122058 15.5713099,9.45778165 15.5713099,9.64584468 L15.5713099,25.4669735 C12.8722287,22.6285972 8.95890913,22.1394673 6.62354481,22.1338942 C6.06947257,22.1324712 5.61901597,21.6804559 5.61901597,21.1259901 L5.61901597,6.00837834 C5.61901597,5.73778575 5.72369373,5.48355678 5.91404911,5.29276648 C6.10263429,5.10375483 6.3519963,5 6.61705408,5 L6.61941434,5 Z M26.4283578,21.1263638 C26.4283578,21.6803682 25.9775472,22.132394 25.423947,22.1342912 C23.0881106,22.1398645 19.1751451,22.6290057 16.4760639,25.4669735 L16.4760639,9.64595235 C16.4760639,9.45788496 16.5236232,9.28131979 16.6139034,9.13546677 C18.8294842,5.55020977 23.0871665,5.00557325 25.4276054,5 L25.4298476,5 C25.6950234,5 25.9448575,5.10375723 26.1328526,5.29277326 C26.323326,5.48356799 26.4283578,5.73780285 26.4283578,6.0084017 L26.4283578,21.1263638 Z M28.9983077,8.66105733 C29.5506524,8.66105733 30.000471,9.10171555 29.9999996,9.6433796 L29.9999996,25.2589523 C29.9999996,25.5591962 29.8628268,25.8391003 29.6233635,26.0264349 C29.3835466,26.2142318 29.0737292,26.2833411 28.7740466,26.2164276 C26.3738749,25.6797329 22.1622907,25.0562472 18.1670719,26.0155716 C20.4769735,23.8716821 23.7384824,23.4920435 25.7170007,23.4875363 C27.1256152,23.4839537 28.2719043,22.3593681 28.2719043,20.9798409 L28.2719043,8.66105733 L28.9983077,8.66105733 Z M3.72809533,20.9798409 C3.72809533,22.3593681 4.87438443,23.4839537 6.28347034,23.4875363 C8.26151727,23.4920435 11.5233797,23.8712198 13.8333991,26.0151093 C9.83818035,25.0557849 5.62647829,25.6797329 3.22583522,26.2160809 C2.92568118,26.2833411 2.61633515,26.2137696 2.37651832,26.0259726 C2.13717287,25.8391003 2,25.5591962 2,25.25849 L2,9.6433796 C2,9.10171555 2.44922936,8.66105733 3.00169192,8.66105733 L3.72809533,8.66105733 L3.72809533,20.9798409 Z" id="Combined-Shape" fill="#8F8E94"></path>
    </g>
</svg>