<?xml version="1.0" encoding="UTF-8"?>
<svg width="32px" height="32px" viewBox="0 0 32 32" version="1.1" xmlns="http://www.w3.org/2000/svg" xmlns:xlink="http://www.w3.org/1999/xlink">
    <!-- Generator: Sketch 50.2 (55047) - http://www.bohemiancoding.com/sketch -->
    <title>💟icons/bus</title>
    <desc>Created with Sketch.</desc>
    <defs>
        <path d="M4.77192982,22.8491228 C4.77192982,24.0842105 5.31929825,25.1929825 6.1754386,25.9649123 L6.1754386,28.4631579 C6.1754386,29.2350877 6.80701754,29.8666667 7.57894737,29.8666667 L8.98245614,29.8666667 C9.75438596,29.8666667 10.3859649,29.2350877 10.3859649,28.4631579 L10.3859649,27.0596491 L21.6140351,27.0596491 L21.6140351,28.4631579 C21.6140351,29.2350877 22.245614,29.8666667 23.0175439,29.8666667 L24.4210526,29.8666667 C25.1929825,29.8666667 25.8245614,29.2350877 25.8245614,28.4631579 L25.8245614,25.9649123 C26.6807018,25.1929825 27.2280702,24.0842105 27.2280702,22.8491228 L27.2280702,8.81403509 C27.2280702,3.90175439 22.2035088,3.2 16,3.2 C9.79649123,3.2 4.77192982,3.90175439 4.77192982,8.81403509 L4.77192982,22.8491228 L4.77192982,22.8491228 Z M9.68421053,24.2526316 C8.51929825,24.2526316 7.57894737,23.3122807 7.57894737,22.1473684 C7.57894737,20.9824561 8.51929825,20.0421053 9.68421053,20.0421053 C10.8491228,20.0421053 11.7894737,20.9824561 11.7894737,22.1473684 C11.7894737,23.3122807 10.8491228,24.2526316 9.68421053,24.2526316 L9.68421053,24.2526316 Z M22.3157895,24.2526316 C21.1508772,24.2526316 20.2105263,23.3122807 20.2105263,22.1473684 C20.2105263,20.9824561 21.1508772,20.0421053 22.3157895,20.0421053 C23.4807018,20.0421053 24.4210526,20.9824561 24.4210526,22.1473684 C24.4210526,23.3122807 23.4807018,24.2526316 22.3157895,24.2526316 L22.3157895,24.2526316 Z M24.4210526,15.8315789 L7.57894737,15.8315789 L7.57894737,8.81403509 L24.4210526,8.81403509 L24.4210526,15.8315789 L24.4210526,15.8315789 Z" id="path-1"></path>
    </defs>
    <g id="💟icons/bus" stroke="none" stroke-width="1" fill="none" fill-rule="evenodd">
        <mask id="mask-2" fill="white">
            <use xlink:href="#path-1"></use>
        </mask>
        <use id="Icon" fill="#8F8E94" xlink:href="#path-1"></use>
    </g>
</svg>