<?xml version="1.0" encoding="UTF-8"?>
<svg width="32px" height="32px" viewBox="0 0 32 32" version="1.1" xmlns="http://www.w3.org/2000/svg" xmlns:xlink="http://www.w3.org/1999/xlink">
    <!-- Generator: Sketch 50.2 (55047) - http://www.bohemiancoding.com/sketch -->
    <title>💟icons/car</title>
    <desc>Created with Sketch.</desc>
    <defs></defs>
    <g id="💟icons/car" stroke="none" stroke-width="1" fill="none" fill-rule="evenodd">
        <path d="M4.248,12.7597598 L26.752,12.7597598 L24.3546667,5.42042042 L6.684,5.42042042 L4.248,12.7597598 Z M24.3546667,20.8408408 C25.0248922,20.8408408 25.5919977,20.6066089 26.056,20.1381381 C26.5200023,19.6696673 26.752,19.0840876 26.752,18.3813814 C26.752,17.6786752 26.5200023,17.0996019 26.056,16.6441441 C25.5919977,16.1886864 25.0248922,15.960961 24.3546667,15.960961 C23.6844411,15.960961 23.1108913,16.1951929 22.634,16.6636637 C22.1571087,17.1321345 21.9186667,17.7047013 21.9186667,18.3813814 C21.9186667,19.0580614 22.1506643,19.6371347 22.6146667,20.1186186 C23.078669,20.6001025 23.6586632,20.8408408 24.3546667,20.8408408 Z M6.684,20.8408408 C7.35422557,20.8408408 7.92133101,20.6066089 8.38533333,20.1381381 C8.84933565,19.6696673 9.08133333,19.0840876 9.08133333,18.3813814 C9.08133333,17.6786752 8.84933565,17.0996019 8.38533333,16.6441441 C7.92133101,16.1886864 7.35422557,15.960961 6.684,15.960961 C6.01377443,15.960961 5.44022461,16.1951929 4.96333333,16.6636637 C4.48644206,17.1321345 4.248,17.7047013 4.248,18.3813814 C4.248,19.0580614 4.47999768,19.6371347 4.944,20.1186186 C5.40800232,20.6001025 5.98799652,20.8408408 6.684,20.8408408 Z M26.6746667,4.6006006 L30,14.3603604 L30,27.3993994 C30,27.8418441 29.8453349,28.2192177 29.536,28.5315315 C29.2266651,28.8438454 28.8528911,29 28.4146667,29 L26.752,29 C26.3137756,29 25.9400015,28.8438454 25.6306667,28.5315315 C25.3213318,28.2192177 25.1666667,27.8418441 25.1666667,27.3993994 L25.1666667,25.7207207 L5.83333333,25.7207207 L5.83333333,27.3993994 C5.83333333,27.8418441 5.67866821,28.2192177 5.36933333,28.5315315 C5.05999845,28.8438454 4.68622441,29 4.248,29 L2.58533333,29 C2.14710892,29 1.77333488,28.8438454 1.464,28.5315315 C1.15466512,28.2192177 1,27.8418441 1,27.3993994 L1,14.3603604 L4.32533333,4.6006006 C4.48000077,4.10610363 4.77644225,3.71571715 5.21466667,3.42942943 C5.65289108,3.14314171 6.14266396,3 6.684,3 L24.3546667,3 C24.8960027,3 25.3793312,3.14314171 25.8046667,3.42942943 C26.2300021,3.71571715 26.5199992,4.10610363 26.6746667,4.6006006 Z" id="directions_car---material" fill="#8F8E94"></path>
    </g>
</svg>