<?xml version="1.0" encoding="UTF-8"?>
<svg width="32px" height="32px" viewBox="0 0 32 32" version="1.1" xmlns="http://www.w3.org/2000/svg" xmlns:xlink="http://www.w3.org/1999/xlink">
    <!-- Generator: Sketch 50.2 (55047) - http://www.bohemiancoding.com/sketch -->
    <title>💟icons/cpu</title>
    <desc>Created with Sketch.</desc>
    <defs></defs>
    <g id="💟icons/cpu" stroke="none" stroke-width="1" fill="none" fill-rule="evenodd">
        <path d="M6.72641088,22 C5.9766152,22 5.33509137,21.7249109 4.8007933,21.1739235 C4.26649522,20.6232058 4,19.9602949 4,19.1870786 L4,6.8126517 C4,6.03835666 4.26649522,5.37679422 4.8007933,4.82580684 C5.33509137,4.27481945 5.9766152,4 6.72641088,4 L25.2733276,4 C26.0231233,4 26.6649086,4.27481945 27.1992067,4.82580684 C27.7335048,5.37679422 28,6.03835666 28,6.8126517 L28,19.1870786 C28,19.9602949 27.7335048,20.6232058 27.1992067,21.1739235 C26.6649086,21.7249109 26.0231233,22 25.2733276,22 L6.72641088,22 Z M6.18086718,6.8126517 L6.18086718,19.1870786 C6.18086718,19.3399958 6.23500311,19.4716071 6.34327496,19.5832609 C6.45154682,19.693836 6.57943314,19.7496629 6.72641088,19.7496629 L25.2722815,19.7496629 C25.4205669,19.7496629 25.5481917,19.693836 25.6564635,19.5832609 C25.7636893,19.4716071 25.8178252,19.3399958 25.8178252,19.1870786 L25.8178252,6.8126517 C25.8178252,6.6600042 25.7636893,6.52839292 25.6564635,6.41673908 C25.5481917,6.30508525 25.4205669,6.25033712 25.2722815,6.25033712 L6.72641088,6.25033712 C6.57943314,6.25033712 6.45154682,6.30616403 6.34327496,6.41673908 C6.23500311,6.52839292 6.18086718,6.6600042 6.18086718,6.8126517 Z M29.3330137,23 L32,23 L32,24.5004795 C32,24.9171995 31.7381597,25.2713395 31.2157577,25.5624201 C30.6943785,25.8546995 30.0661153,26 29.3330137,26 L2.6669863,26 C1.93362899,26 1.30536578,25.8546995 0.782963762,25.5624201 C0.260817452,25.2713395 0,24.9171995 0,24.5004795 L0,23 L29.3330137,23 Z M19.4479067,25.0006394 C19.814387,25.0006394 19.9978908,24.8340257 20,24.5012772 C20,24.16805 19.814387,24 19.4479067,24 L13.9501758,24 C13.5836956,24 13.4001918,24.16805 13.4001918,24.5012772 C13.4001918,24.8321106 13.5836956,25.0006394 13.9501758,25.0006394 L19.4479067,25.0006394 Z" id="Combined-Shape" fill="#8F8E94"></path>
    </g>
</svg>