<?xml version="1.0" encoding="UTF-8"?>
<svg width="32px" height="32px" viewBox="0 0 32 32" version="1.1" xmlns="http://www.w3.org/2000/svg" xmlns:xlink="http://www.w3.org/1999/xlink">
    <!-- Generator: Sketch 50.2 (55047) - http://www.bohemiancoding.com/sketch -->
    <title>💟icons/diamond</title>
    <desc>Created with Sketch.</desc>
    <defs></defs>
    <g id="💟icons/diamond" stroke="none" stroke-width="1" fill="none" fill-rule="evenodd">
        <path d="M1.154375,11.879 L8.22691667,11.879 L14.0980417,27.9475417 L1.154375,11.879 Z M9.38066667,11.879 L22.0139583,11.879 L15.6358333,28.9989167 L9.38066667,11.879 Z M17.0295417,28.3624583 L23.169875,11.879 L30.306875,11.879 L17.0295417,28.3624583 Z M25.2422917,3.21233333 L22.6103333,10.278375 L16.8692083,3.21233333 L25.2422917,3.21233333 Z M21.63425,10.7956667 L9.82754167,10.7956667 L15.730625,3.53029167 L21.63425,10.7956667 Z M14.5925833,3.21233333 L8.813,10.3260417 L6.21354167,3.21233333 L14.5925833,3.21233333 Z M5.311125,3.89808333 L7.83095833,10.7956667 L1,10.7956667 L5.311125,3.89808333 Z M30.4617917,10.7956667 L23.5734167,10.7956667 L26.1463333,3.89104167 L30.4617917,10.7956667 Z" id="Combined-Shape" fill="#8F8E94" fill-rule="nonzero"></path>
    </g>
</svg>