<?xml version="1.0" encoding="UTF-8"?>
<svg width="32px" height="32px" viewBox="0 0 32 32" version="1.1" xmlns="http://www.w3.org/2000/svg" xmlns:xlink="http://www.w3.org/1999/xlink">
    <!-- Generator: Sketch 50.2 (55047) - http://www.bohemiancoding.com/sketch -->
    <title>💟icons/fix</title>
    <desc>Created with Sketch.</desc>
    <defs></defs>
    <g id="💟icons/fix" stroke="none" stroke-width="1" fill="none" fill-rule="evenodd">
        <path d="M3.70493925,24.8997996 L11.6030646,17 L15,20.3987976 L7.10989103,28.2965932 C6.63892948,28.7655311 6.02166924,29 5.40240491,29 C4.79316104,29 4.17389671,28.7655311 3.70493925,28.2965932 C2.76502025,27.3567134 2.76502025,25.8376754 3.70493925,24.8997996 Z M22.8210811,10.8584039 L18.6787387,15 L17,13.3195821 L21.1423423,9.17798595 L22.8983784,5.77949919 L26.345045,4 L28,5.65663844 L26.2201802,9.10070258 L22.8210811,10.8584039 Z M23.6289062,19.655027 C26.0703125,19.8229826 28,21.8286853 28,24.3070073 C28,25.033513 27.8261719,25.7111944 27.5351562,26.3224748 L24.4160156,23.2094368 C24.2558594,23.0414811 24.0566406,22.9340677 23.8574219,22.8579017 C23.6835937,22.7895477 23.5,22.7524412 23.3164062,22.7524412 C22.9121094,22.7524412 22.515625,22.9047731 22.2109375,23.2094368 C21.7597656,23.6508085 21.6523437,24.3011483 21.8515625,24.8577455 C21.9355469,25.0549957 22.0429687,25.2541989 22.2109375,25.4143426 L25.3222656,28.5273807 C24.7128906,28.8242325 24.0332031,29 23.3164062,29 C20.8300781,29 18.8222656,27.0626514 18.6542969,24.6272947 L18.625,24.3070073 C18.625,23.7347863 18.7460937,23.193813 18.9296875,22.6899461 L9.30859375,13.0715569 C8.8046875,13.2531833 8.26367187,13.3762206 7.69140625,13.3762206 L7.37109375,13.344973 C4.9375,13.1770174 3,11.1713147 3,8.68322787 C3,7.96648699 3.17578125,7.28880556 3.47265625,6.67752519 L6.5859375,9.79056324 C6.74609375,9.95851887 6.94335937,10.0639794 7.15039062,10.1420983 C7.31835937,10.2104523 7.5,10.2475588 7.69140625,10.2475588 C8.08789062,10.2475588 8.484375,10.0952269 8.79101562,9.79056324 C9.24023437,9.3472385 9.34765625,8.69885165 9.140625,8.14225451 C9.07226562,7.9450043 8.95703125,7.74580111 8.79101562,7.58565737 L5.67773437,4.46480744 C6.28710937,4.17576752 6.96679687,4 7.69140625,4 C10.171875,4 12.1777344,5.92953675 12.3457031,8.37075228 L12.375,8.68322787 C12.375,9.25544879 12.2617187,9.79837513 12.0703125,10.3081009 L21.6914062,19.9284431 C22.203125,19.7390048 22.7441406,19.6237794 23.3164062,19.6237794 L23.6289062,19.655027 Z" id="Combined-Shape" fill="#8F8E94"></path>
    </g>
</svg>