<?xml version="1.0" encoding="UTF-8"?>
<svg width="32px" height="32px" viewBox="0 0 32 32" version="1.1" xmlns="http://www.w3.org/2000/svg" xmlns:xlink="http://www.w3.org/1999/xlink">
    <!-- Generator: Sketch 50.2 (55047) - http://www.bohemiancoding.com/sketch -->
    <title>💟icons/homeitem</title>
    <desc>Created with Sketch.</desc>
    <defs></defs>
    <g id="💟icons/homeitem" stroke="none" stroke-width="1" fill="none" fill-rule="evenodd">
        <path d="M6,5.50015744 C6,5.77618238 5.7761194,6 5.49984256,6 C5.22381762,6 5,5.77618238 5,5.50015744 C5,5.2238806 5.22381762,5 5.49984256,5 C5.7761194,5 6,5.2238806 6,5.50015744 Z M8,5.50015744 C8,5.77618238 7.77618238,6 7.50015744,6 C7.2238806,6 7,5.77618238 7,5.50015744 C7,5.2238806 7.2238806,5 7.50015744,5 C7.77618238,5 8,5.2238806 8,5.50015744 Z M22,5.50015744 C22,5.77618238 21.7761194,6 21.4998426,6 C21.2238176,6 21,5.77618238 21,5.50015744 C21,5.2238806 21.2238176,5 21.4998426,5 C21.7761194,5 22,5.2238806 22,5.50015744 Z M24,5.50015744 C24,5.77618238 23.776126,6 23.5000315,6 C23.223685,6 23,5.77618238 23,5.50015744 C23,5.2238806 23.223685,5 23.5000315,5 C23.776126,5 24,5.2238806 24,5.50015744 Z M26,5.50015744 C26,5.77618238 25.7761194,6 25.5000945,6 C25.2238806,6 25,5.77618238 25,5.50015744 C25,5.2238806 25.2238806,5 25.5000945,5 C25.7761194,5 26,5.2238806 26,5.50015744 Z M4,29.9139323 L4,7.49644308 L27.9578022,7.49644308 L27.9578022,29.9139323 L4,29.9139323 Z M15.9787253,24.7490954 C12.5782857,24.7490954 9.81178022,22.0375754 9.81142857,18.7051446 C9.81142857,15.3724554 12.5782857,12.66128 15.9787253,12.66128 C19.3794286,12.66128 22.1459341,15.3724554 22.1459341,18.7051446 C22.1459341,22.0375754 19.3794286,24.7490954 15.9787253,24.7490954 Z M15.9787253,13.8980185 C13.2698901,13.8980185 11.0738462,16.0502277 11.0738462,18.7051446 C11.0738462,18.7233231 11.0751648,18.7415015 11.0751648,18.75968 C11.308044,18.9572308 11.5645714,19.1453908 12.0353407,19.1453908 C12.5483956,19.1453908 12.8073846,18.9225969 13.0573187,18.7068677 C13.3062857,18.4925169 13.5418901,18.2898831 14.021978,18.2898831 C14.5017143,18.2898831 14.736967,18.4925169 14.9859341,18.7068677 C15.2362198,18.9225969 15.4948571,19.1453908 16.0079121,19.1453908 C16.520967,19.1453908 16.7795165,18.9225969 17.0298901,18.7068677 C17.2788571,18.4925169 17.5141099,18.2898831 17.9941978,18.2898831 C18.4745495,18.2898831 18.7098022,18.4925169 18.9587692,18.7068677 C19.2087912,18.9225969 19.4676923,19.1453908 19.9807473,19.1453908 C20.4117802,19.1453908 20.6631209,18.9879015 20.8811429,18.8098215 C20.8818462,18.7751877 20.883956,18.7402092 20.883956,18.7051446 C20.883956,16.0502277 18.6878242,13.8980185 15.9787253,13.8980185 Z M15.9787253,11.2828185 C11.8025495,11.2828185 8.40518681,14.6124923 8.40483516,18.7051446 C8.40483516,22.7977969 11.8025495,26.1272123 15.9787253,26.1272123 C20.1549011,26.1272123 23.5525275,22.7977969 23.5525275,18.7051446 C23.5525275,14.6124923 20.1549011,11.2828185 15.9787253,11.2828185 Z M4.00527473,4.46451692 L4.00527473,2.05220923 L27.9578022,2.05220923 L27.9578022,4.46451692 L4.00527473,4.46451692 Z" id="Combined-Shape" fill="#8F8E94"></path>
    </g>
</svg>