<?xml version="1.0" encoding="UTF-8"?>
<svg width="32px" height="32px" viewBox="0 0 32 32" version="1.1" xmlns="http://www.w3.org/2000/svg" xmlns:xlink="http://www.w3.org/1999/xlink">
    <!-- Generator: Sketch 50.2 (55047) - http://www.bohemiancoding.com/sketch -->
    <title>💟icons/hotel</title>
    <desc>Created with Sketch.</desc>
    <defs></defs>
    <g id="💟icons/hotel" stroke="none" stroke-width="1" fill="none" fill-rule="evenodd">
        <path d="M26.3267974,7.7552 C27.3398743,7.7552 28.2797705,8.01279742 29.1465142,8.528 C30.0132578,9.04320258 30.7055167,9.73199569 31.2233115,10.5944 C31.7411064,11.4568043 32,12.391995 32,13.4 L32,26 L29.1633987,26 L29.1633987,21.8 L3.83660131,21.8 L3.83660131,26 L1,26 L1,5 L3.83660131,5 L3.83660131,17.6 L15.1154684,17.6 L15.1154684,7.7552 L26.3267974,7.7552 Z M9.4422658,16.1552 C8.69934269,16.1552 8.0014557,15.9648019 7.34858388,15.584 C6.69571206,15.2031981 6.17792493,14.6880032 5.79520697,14.0384 C5.41248901,13.3887968 5.2211329,12.6944037 5.2211329,11.9552 C5.2211329,11.2159963 5.41248901,10.5216032 5.79520697,9.872 C6.17792493,9.22239675 6.69571206,8.7072019 7.34858388,8.3264 C8.0014557,7.9455981 8.69934269,7.7552 9.4422658,7.7552 C10.1851889,7.7552 10.8830759,7.9455981 11.5359477,8.3264 C12.1888195,8.7072019 12.7066067,9.22239675 13.0893246,9.872 C13.4720426,10.5216032 13.6633987,11.2159963 13.6633987,11.9552 C13.6633987,12.6944037 13.4720426,13.3887968 13.0893246,14.0384 C12.7066067,14.6880032 12.1888195,15.2031981 11.5359477,15.584 C10.8830759,15.9648019 10.1851889,16.1552 9.4422658,16.1552 Z" id="hotel---material" fill="#8F8E94"></path>
    </g>
</svg>