<?xml version="1.0" encoding="UTF-8"?>
<svg width="32px" height="32px" viewBox="0 0 32 32" version="1.1" xmlns="http://www.w3.org/2000/svg" xmlns:xlink="http://www.w3.org/1999/xlink">
    <!-- Generator: Sketch 50.2 (55047) - http://www.bohemiancoding.com/sketch -->
    <title>💟icons/ic_camera_alt</title>
    <desc>Created with Sketch.</desc>
    <defs>
        <path d="M11.9,3.7 L9.399,6.43333333 L5.06666667,6.43333333 C3.56333333,6.43333333 2.33333333,7.66333333 2.33333333,9.16666667 L2.33333333,25.5666667 C2.33333333,27.07 3.56333333,28.3 5.06666667,28.3 L26.9333333,28.3 C28.4366667,28.3 29.6666667,27.07 29.6666667,25.5666667 L29.6666667,9.16666667 C29.6666667,7.66333333 28.4366667,6.43333333 26.9333333,6.43333333 L22.601,6.43333333 L20.1,3.7 L11.9,3.7 L11.9,3.7 Z M16,24.2 C12.228,24.2 9.16666667,21.1386667 9.16666667,17.3666667 C9.16666667,13.5946667 12.228,10.5333333 16,10.5333333 C19.772,10.5333333 22.8333333,13.5946667 22.8333333,17.3666667 C22.8333333,21.1386667 19.772,24.2 16,24.2 Z M16,21.74 C18.4153253,21.74 20.3733333,19.781992 20.3733333,17.3666667 C20.3733333,14.9513414 18.4153253,12.9933333 16,12.9933333 C13.5846747,12.9933333 11.6266667,14.9513414 11.6266667,17.3666667 C11.6266667,19.781992 13.5846747,21.74 16,21.74 Z" id="path-1"></path>
    </defs>
    <g id="💟icons/ic_camera_alt" stroke="none" stroke-width="1" fill="none" fill-rule="evenodd">
        <mask id="mask-2" fill="white">
            <use xlink:href="#path-1"></use>
        </mask>
        <use id="Icon" fill="#8F8E94" xlink:href="#path-1"></use>
    </g>
</svg>