<?xml version="1.0" encoding="UTF-8"?>
<svg width="32px" height="32px" viewBox="0 0 32 32" version="1.1" xmlns="http://www.w3.org/2000/svg" xmlns:xlink="http://www.w3.org/1999/xlink">
    <!-- Generator: Sketch 50.2 (55047) - http://www.bohemiancoding.com/sketch -->
    <title>💟icons/med</title>
    <desc>Created with Sketch.</desc>
    <defs></defs>
    <g id="💟icons/med" stroke="none" stroke-width="1" fill="none" fill-rule="evenodd">
        <path d="M26.1719357,17.7076517 C26.2910744,17.5050859 26.4102255,17.3025304 26.5294142,17.100007 C26.8637351,16.5315354 27.1981302,15.8285178 27.3824256,15.1183615 L22.6574914,15.1183615 L20.4689655,11.7522902 C19.9540431,10.9755092 18.6666466,10.9755092 18.2804397,11.8817942 L15.4482759,17.5781478 L12.7448276,13.176409 C12.2299052,12.399628 11.3287155,12.399628 10.6850776,12.9174617 L8.49655172,15.1183615 L3.34714655,15.1183615 C2.4459569,11.7522902 3.73335345,8.25677573 6.56551724,6.31482322 C9.39768103,4.37287071 13.1310345,4.63181794 15.5769914,6.96216095 C18.0230086,4.63181794 21.7563017,4.37287071 24.5885259,6.31482322 C27.2603005,8.23402377 28.548951,11.6705964 27.708954,15 L32,15 L32,18 L26.2129254,18 C23.2735743,22.7010414 16.4703316,27.5521205 16.0919741,27.8058047 C15.7057672,28.0646913 15.062069,28.0646913 14.6758621,27.8058047 C14.4183707,27.5468575 7.20921552,22.497781 4.37699138,17.7076517 L9.01147414,17.7076517 C9.39768103,17.7076517 9.65517241,17.5781478 10.0413793,17.3192612 L11.4574914,15.8951425 L14.5471466,20.944219 C14.6758621,21.2031662 14.8045776,21.3326095 15.062069,21.4620528 C15.7057672,21.8504433 16.478181,21.5915567 16.7356121,20.944219 L19.5678362,15.1183615 L20.8551724,17.1897573 C21.1126638,17.4487045 21.4988707,17.7076517 21.8850776,17.7076517 L26.1719357,17.7076517 Z M3.34714655,15.1183615 C3.47586207,15.7656992 3.73335345,16.4129763 3.99078448,16.9308707 C4.11956034,17.1897573 4.24827586,17.4487045 4.37699138,17.7076517 L3.01980663e-14,17.7076517 L3.01980663e-14,15.1183615 L3.34714655,15.1183615 Z" id="Combined-Shape" fill="#8F8E94"></path>
    </g>
</svg>