<?xml version="1.0" encoding="UTF-8"?>
<svg width="32px" height="32px" viewBox="0 0 32 32" version="1.1" xmlns="http://www.w3.org/2000/svg" xmlns:xlink="http://www.w3.org/1999/xlink">
    <!-- Generator: Sketch 50.2 (55047) - http://www.bohemiancoding.com/sketch -->
    <title>💟icons/money</title>
    <desc>Created with Sketch.</desc>
    <defs></defs>
    <g id="💟icons/money" stroke="none" stroke-width="1" fill="none" fill-rule="evenodd">
        <path d="M30.7029845,6.29677574 C30.5044948,6.09924488 30.2705262,6 29.9998801,6 L2.00011986,6 C1.72947381,6 1.4943066,6.09924488 1.29677574,6.29677574 C1.09924488,6.4943066 1,6.72947381 1,7.00011986 L1,24.9998801 C1,25.2705262 1.09924488,25.5044948 1.29677574,25.7020257 C1.4943066,25.9007551 1.72947381,26 2.00011986,26 L29.9998801,26 C30.2705262,26 30.5044948,25.9007551 30.7029845,25.7020257 C30.9005154,25.5044948 31,25.2705262 31,24.9998801 L31,7.00011986 C31,6.72947381 30.9005154,6.49526549 30.7029845,6.29677574 Z M28.9997603,19.9992808 C27.8956011,19.9992808 26.9527748,20.3907467 26.1717608,21.1717608 C25.3897878,21.9527748 24.9992808,22.8948819 24.9992808,23.9997603 L6.99952056,23.9997603 C6.99952056,22.8948819 6.60901354,21.9527748 5.82823924,21.1717608 C5.04722522,20.3897878 4.10415918,19.9992808 3.00023972,19.9992808 L3.00023972,11.9995206 C4.10415918,11.9995206 5.04722522,11.6090135 5.82823924,10.8282392 C6.60901354,10.0472252 6.99952056,9.10415918 6.99952056,8.00023972 L25.0002397,8.00023972 C25.0002397,9.10415918 25.3897878,10.0472252 26.1717608,10.8282392 C26.9527748,11.6090135 27.8956011,11.9995206 28.9997603,11.9995206 L28.9997603,19.9992808 Z M20.6156059,11.3558809 C20.1747093,10.6598311 19.5937912,10.0931288 18.871533,9.6555158 C18.1495385,9.21867739 17.359511,9 16.4993408,9 C15.6402253,9 14.849143,9.21867739 14.1282033,9.6555158 C13.4062088,10.0931288 12.8242359,10.6598311 12.3833393,11.3558809 C11.9424428,12.0506399 11.6014863,12.8029727 11.3604699,13.610814 C11.1194534,14.4186553 11,15.2143621 11,16 C11,16.7846052 11.1194534,17.5813447 11.3604699,18.389186 C11.6014863,19.1970273 11.9424428,19.9483274 12.3833393,20.6441191 C12.8242359,21.3399107 13.4062088,21.9058385 14.1282033,22.3434515 C14.849143,22.7810644 15.6402253,23 16.4993408,23 C17.359511,23 18.1495385,22.7810644 18.871533,22.3434515 C19.5937912,21.9058385 20.1747093,21.3399107 20.6156059,20.6441191 C21.0572935,19.9483274 21.39825,19.1970273 21.6384754,18.389186 C21.8794918,17.5813447 22,16.7846052 22,16 C22,15.2143621 21.8794918,14.4186553 21.6384754,13.610814 C21.39825,12.8029727 21.0572935,12.0506399 20.6156059,11.3558809 Z M20,20 L13.1087641,20 L13.1087641,18.4117946 L15.4049249,18.4117946 L15.4049249,13.6474321 L15.3696798,13.6474321 C15.2135552,13.8675015 14.8845095,14.1827566 14.3822673,14.5904053 L13,13.2666892 L15.6565966,11 L17.7024624,11 L17.7024624,18.4117946 L20,18.4117946 L20,20 Z" id="Combined-Shape" fill="#8F8E94"></path>
    </g>
</svg>