<?xml version="1.0" encoding="UTF-8"?>
<svg width="32px" height="32px" viewBox="0 0 32 32" version="1.1" xmlns="http://www.w3.org/2000/svg" xmlns:xlink="http://www.w3.org/1999/xlink">
    <!-- Generator: Sketch 50.2 (55047) - http://www.bohemiancoding.com/sketch -->
    <title>💟icons/more</title>
    <desc>Created with Sketch.</desc>
    <defs></defs>
    <g id="💟icons/more" stroke="none" stroke-width="1" fill="none" fill-rule="evenodd">
        <path d="M16,13 C16.8143753,13 17.5209551,13.2993982 18.1197605,13.8982036 C18.7185659,14.497009 19.0179641,15.2035887 19.0179641,16.0179641 C19.0179641,16.8323394 18.7185659,17.5389192 18.1197605,18.1377246 C17.5209551,18.7365299 16.8143753,19.0359281 16,19.0359281 C15.1856247,19.0359281 14.4790449,18.7365299 13.8802395,18.1377246 C13.2814341,17.5389192 12.9820359,16.8323394 12.9820359,16.0179641 C12.9820359,15.2035887 13.2814341,14.497009 13.8802395,13.8982036 C14.4790449,13.2993982 15.1856247,13 16,13 Z M24.9820359,13 C25.7964113,13 26.502991,13.2993982 27.1017964,13.8982036 C27.7006018,14.497009 28,15.2035887 28,16.0179641 C28,16.8323394 27.7006018,17.5389192 27.1017964,18.1377246 C26.502991,18.7365299 25.7964113,19.0359281 24.9820359,19.0359281 C24.1676606,19.0359281 23.4610808,18.7365299 22.8622754,18.1377246 C22.2634701,17.5389192 21.9640719,16.8323394 21.9640719,16.0179641 C21.9640719,15.2035887 22.2634701,14.497009 22.8622754,13.8982036 C23.4610808,13.2993982 24.1676606,13 24.9820359,13 Z M7.01796407,13 C7.8323394,13 8.53891916,13.2993982 9.13772455,13.8982036 C9.73652994,14.497009 10.0359281,15.2035887 10.0359281,16.0179641 C10.0359281,16.8323394 9.73652994,17.5389192 9.13772455,18.1377246 C8.53891916,18.7365299 7.8323394,19.0359281 7.01796407,19.0359281 C6.20358874,19.0359281 5.49700898,18.7365299 4.89820359,18.1377246 C4.2993982,17.5389192 4,16.8323394 4,16.0179641 C4,15.2035887 4.2993982,14.497009 4.89820359,13.8982036 C5.49700898,13.2993982 6.20358874,13 7.01796407,13 Z" id="more_horiz---material" fill="#8F8E94"></path>
    </g>
</svg>