<?xml version="1.0" encoding="UTF-8"?>
<svg width="32px" height="32px" viewBox="0 0 32 32" version="1.1" xmlns="http://www.w3.org/2000/svg" xmlns:xlink="http://www.w3.org/1999/xlink">
    <!-- Generator: Sketch 50.2 (55047) - http://www.bohemiancoding.com/sketch -->
    <title>💟icons/motorbike</title>
    <desc>Created with Sketch.</desc>
    <defs></defs>
    <g id="💟icons/motorbike" stroke="none" stroke-width="1" fill="none" fill-rule="evenodd">
        <path d="M26.3125,15.7096774 C24.0282812,15.7096774 22.1215234,17.3375742 21.7088477,19.483871 L19.9273633,19.483871 C20.3573828,16.3726 23.0566211,13.9677419 26.3125,13.9677419 C27.4983203,13.9677419 28.6570703,14.2893032 29.6634766,14.8975871 L30.5788281,13.4104968 C29.2966797,12.6354516 27.8213477,12.2258065 26.3125,12.2258065 L18.8376953,12.2258065 C18.4749414,11.2119419 17.4974219,10.483871 16.3515625,10.483871 L10.3316406,10.483871 L10.9857227,8.74193548 L13.890625,8.74193548 L13.890625,7 L9.76427734,7 L8.45611328,10.483871 L8.12628906,10.483871 C6.63912109,10.483871 5.32392578,11.4232387 4.85365234,12.8213742 L4.46810547,13.9677419 L5.6875,13.9677419 C6.16925781,13.9677419 6.63871094,14.0208129 7.09058594,14.1206258 L6.46919922,15.7755226 C6.21478516,15.7329613 5.95392578,15.7096774 5.6875,15.7096774 C3.1028125,15.7096774 1,17.7934968 1,20.3548387 C1,22.9161806 3.1028125,25 5.6875,25 C8.2721875,25 10.375,22.9161806 10.375,20.3548387 C10.375,18.6740452 9.46949219,17.1989161 8.11650391,16.3832839 L8.73748047,14.7294903 C10.757207,15.8091419 12.1328125,17.9257097 12.1328125,20.3548387 L12.1328125,21.2258065 L21.7088477,21.2258065 C22.1215234,23.3721032 24.0282812,25 26.3125,25 C28.8971875,25 31,22.9161806 31,20.3548387 C31,17.7934968 28.8971875,15.7096774 26.3125,15.7096774 Z M8.6171875,20.3548387 C8.6171875,21.9556774 7.30292969,23.2580645 5.6875,23.2580645 C4.07207031,23.2580645 2.7578125,21.9556774 2.7578125,20.3548387 C2.7578125,18.754 4.07207031,17.4516129 5.6875,17.4516129 C5.738125,17.4516129 5.78839844,17.4528903 5.8384375,17.4554452 L4.68800781,20.5192774 L6.33548828,21.1267484 L7.48515625,18.0648903 C8.17333984,18.5965871 8.6171875,19.4250516 8.6171875,20.3548387 Z M26.3125,23.2580645 C25.0031641,23.2580645 23.891875,22.4024258 23.5176953,21.2258065 L27.1914062,21.2258065 L27.1914062,19.483871 L23.5176953,19.483871 C23.8919336,18.3072516 25.0031641,17.4516129 26.3125,17.4516129 C27.9279297,17.4516129 29.2421875,18.754 29.2421875,20.3548387 C29.2421875,21.9556774 27.9279297,23.2580645 26.3125,23.2580645 Z" id="Shape" fill="#8F8E94" fill-rule="nonzero"></path>
    </g>
</svg>