<?xml version="1.0" encoding="UTF-8"?>
<svg width="32px" height="32px" viewBox="0 0 32 32" version="1.1" xmlns="http://www.w3.org/2000/svg" xmlns:xlink="http://www.w3.org/1999/xlink">
    <!-- Generator: Sketch 50.2 (55047) - http://www.bohemiancoding.com/sketch -->
    <title>💟icons/playstore</title>
    <desc>Created with Sketch.</desc>
    <defs></defs>
    <g id="💟icons/playstore" stroke="none" stroke-width="1" fill="none" fill-rule="evenodd">
        <path d="M7.15795446,1.45094907 L22,9.81105046 L17.83887,14 L5,1.07523871 C5.73058559,0.90162727 6.509484,1.02912142 7.15795446,1.45094907 Z M3.57746977,2 L17,15.5 L3.57746977,29 C3.21100295,28.509914 3,27.9082237 3,27.2716213 L3,3.72837865 C3,3.09183349 3.21094604,2.49008598 3.57746977,2 Z M27.5249113,13.0769443 C28.4488396,13.575252 29,14.4808697 29,15.4998896 C29,16.5189096 28.4488396,17.4245824 27.5255415,17.9228901 L23.6716583,20 L19,15.4998896 L23.6714291,11 L27.5249113,13.0769443 Z M17.8385535,17 L22,21.188795 L7.15730932,29.5483643 C6.69590244,29.8484474 6.16833406,30 5.63893095,30 C5.42471228,30 5.21049361,29.9731369 5,29.9232723 L17.8385535,17 Z" id="Combined-Shape" fill="#8F8E94" fill-rule="nonzero"></path>
    </g>
</svg>