<?xml version="1.0" encoding="UTF-8"?>
<svg width="32px" height="32px" viewBox="0 0 32 32" version="1.1" xmlns="http://www.w3.org/2000/svg" xmlns:xlink="http://www.w3.org/1999/xlink">
    <!-- Generator: Sketch 50.2 (55047) - http://www.bohemiancoding.com/sketch -->
    <title>💟icons/scissor</title>
    <desc>Created with Sketch.</desc>
    <defs></defs>
    <g id="💟icons/scissor" stroke="none" stroke-width="1" fill="none" fill-rule="evenodd">
        <path d="M7.1898188,26.5697905 C5.70736424,26.5697905 4.50550723,25.4038024 4.50550723,23.9655362 C4.50550723,22.5273798 5.7073076,21.3613368 7.1898188,21.3613368 C8.67261321,21.3613368 9.87413037,22.5273249 9.87413037,23.9655362 C9.87413037,25.4037475 8.67261321,26.5697905 7.1898188,26.5697905 Z M7.1898188,11.6390548 C5.70736424,11.6390548 4.50550723,10.4730668 4.50550723,9.03480054 C4.50550723,7.59658925 5.70736424,6.43060119 7.1898188,6.43060119 C8.67261321,6.43060119 9.87413037,7.59658925 9.87413037,9.03480054 C9.87413037,10.4730668 8.67261321,11.6390548 7.1898188,11.6390548 Z M31,8.32753666 C29.6599966,6.47093463 26.9957358,5.9817131 25.0816798,7.28166972 L15.2399215,13.9671845 L11.6611981,11.5359133 C12.993725,9.30394657 12.3669401,6.41570969 10.1483275,4.90875571 C7.8053889,3.31772794 4.5774408,3.86986744 2.93678902,6.14238745 C1.29687358,8.41501736 1.86554526,11.5473979 4.2084839,13.1390851 C5.81617084,14.2311102 7.8412424,14.3130409 9.48331019,13.5227473 L13.8666134,16.5001684 L9.48370668,19.4773146 C7.84158225,18.6874057 5.81662396,18.7693364 4.20882374,19.8610318 C1.86599838,21.452719 1.29727006,24.5847149 2.93718551,26.8572349 C4.57783728,29.1301945 7.80618187,29.6822791 10.1486107,28.0912513 C12.3669401,26.5842973 12.9936684,23.6960605 11.661538,21.4640937 L15.2402047,19.0328226 L25.0816231,25.7179527 C26.9956791,27.0183489 29.6599399,26.5287427 30.9999434,24.6720857 L18.9689124,16.5001684 L31,8.32753666 Z" id="Fill-1" fill="#8F8E94" transform="translate(16.500000, 16.500000) rotate(-90.000000) translate(-16.500000, -16.500000) "></path>
    </g>
</svg>