<?xml version="1.0" encoding="UTF-8"?>
<svg width="32px" height="32px" viewBox="0 0 32 32" version="1.1" xmlns="http://www.w3.org/2000/svg" xmlns:xlink="http://www.w3.org/1999/xlink">
    <!-- Generator: Sketch 50.2 (55047) - http://www.bohemiancoding.com/sketch -->
    <title>💟icons/shipping</title>
    <desc>Created with Sketch.</desc>
    <defs>
        <path d="M25.7212121,11.1393939 L22.0757576,11.1393939 L22.0757576,6.27878788 L5.06363636,6.27878788 C3.7269697,6.27878788 2.63333333,7.37242424 2.63333333,8.70909091 L2.63333333,22.0757576 L5.06363636,22.0757576 C5.06363636,24.0929091 6.69193939,25.7212121 8.70909091,25.7212121 C10.7262424,25.7212121 12.3545455,24.0929091 12.3545455,22.0757576 L19.6454545,22.0757576 C19.6454545,24.0929091 21.2737576,25.7212121 23.2909091,25.7212121 C25.3080606,25.7212121 26.9363636,24.0929091 26.9363636,22.0757576 L29.3666667,22.0757576 L29.3666667,16 L25.7212121,11.1393939 L25.7212121,11.1393939 Z M8.70909091,23.8984848 C7.70051515,23.8984848 6.88636364,23.0843333 6.88636364,22.0757576 C6.88636364,21.0671818 7.70051515,20.2530303 8.70909091,20.2530303 C9.71766667,20.2530303 10.5318182,21.0671818 10.5318182,22.0757576 C10.5318182,23.0843333 9.71766667,23.8984848 8.70909091,23.8984848 L8.70909091,23.8984848 Z M25.1136364,12.9621212 L27.4953333,16 L22.0757576,16 L22.0757576,12.9621212 L25.1136364,12.9621212 L25.1136364,12.9621212 Z M23.2909091,23.8984848 C22.2823333,23.8984848 21.4681818,23.0843333 21.4681818,22.0757576 C21.4681818,21.0671818 22.2823333,20.2530303 23.2909091,20.2530303 C24.2994848,20.2530303 25.1136364,21.0671818 25.1136364,22.0757576 C25.1136364,23.0843333 24.2994848,23.8984848 23.2909091,23.8984848 L23.2909091,23.8984848 Z" id="path-1"></path>
    </defs>
    <g id="💟icons/shipping" stroke="none" stroke-width="1" fill="none" fill-rule="evenodd">
        <mask id="mask-2" fill="white">
            <use xlink:href="#path-1"></use>
        </mask>
        <use id="Icon" fill="#8F8E94" xlink:href="#path-1"></use>
    </g>
</svg>