<?xml version="1.0" encoding="UTF-8"?>
<svg width="32px" height="32px" viewBox="0 0 32 32" version="1.1" xmlns="http://www.w3.org/2000/svg" xmlns:xlink="http://www.w3.org/1999/xlink">
    <!-- Generator: Sketch 50.2 (55047) - http://www.bohemiancoding.com/sketch -->
    <title>💟icons/shirt</title>
    <desc>Created with Sketch.</desc>
    <defs></defs>
    <g id="💟icons/shirt" stroke="none" stroke-width="1" fill="none" fill-rule="evenodd">
        <path d="M15.4996856,6 C13.8895976,6 12.4992814,5.19085105 12,4 C12.9531306,4.20678113 14.1676922,4.33174239 15.4996856,4.33174239 C16.8316789,4.33174239 18.0468694,4.20678113 19,4 C18.5000898,5.19085105 17.1097736,6 15.4996856,6 Z M29.9636905,7.85281133 C30.0217101,8.02092207 30.0101797,8.2017961 29.9292222,8.36030399 L27.5282187,13.0545199 C27.4141422,13.2772089 27.1864799,13.4110411 26.9450793,13.4110411 C26.8827665,13.4110411 26.8194725,13.402046 26.7571597,13.3835696 L24.0897324,12.6005115 L24.0897324,28.3510172 C24.0897324,28.7085108 23.7960774,29 23.4347125,29 L7.56520034,29 C7.20297681,29 6.90883119,28.7085108 6.90883119,28.3510172 L6.90883119,12.6000253 L4.2428758,13.3830834 C4.18056305,13.4015598 4.117269,13.4105549 4.05446559,13.4105549 C3.81306501,13.4105549 3.58442138,13.2772089 3.47181684,13.0545199 L1.07179461,8.35993932 C0.988874493,8.2017961 0.978325484,8.02043585 1.03732634,7.85281133 C1.09387393,7.68701013 1.21886742,7.55026061 1.38176375,7.47623354 L6.90883119,4.94679289 C8.08651765,4.55222495 9.28493415,4.24031449 10.4942676,4.01239862 C10.5369543,4.00388976 10.579641,4 10.6213464,4 C10.9207665,4 11.1881716,4.20518506 11.2556362,4.50530467 C11.697468,6.43304744 13.4190417,7.87602836 15.5000178,7.87602836 C17.5805031,7.87602836 19.3025675,6.43256122 19.7442766,4.50530467 C19.8108826,4.20518506 20.079269,4 20.3786891,4 C20.4203945,4 20.4625906,4.00388976 20.5052772,4.01239862 C21.7151014,4.24031449 22.9133952,4.55222495 24.0892417,4.94679289 L29.6182718,7.47623354 C29.7801868,7.55026061 29.9043217,7.68701013 29.9636905,7.85281133 Z" id="Combined-Shape" fill="#8F8E94"></path>
    </g>
</svg>