<?xml version="1.0" encoding="UTF-8"?>
<svg width="32px" height="32px" viewBox="0 0 32 32" version="1.1" xmlns="http://www.w3.org/2000/svg" xmlns:xlink="http://www.w3.org/1999/xlink">
    <!-- Generator: Sketch 50.2 (55047) - http://www.bohemiancoding.com/sketch -->
    <title>💟icons/shopping</title>
    <desc>Created with Sketch.</desc>
    <defs></defs>
    <g id="💟icons/shopping" stroke="none" stroke-width="1" fill="none" fill-rule="evenodd">
        <path d="M10.40175,25.40175 C8.8635,25.40175 7.59825,26.66 7.59825,28.1965 C7.59825,29.74175 8.8635,31 10.40175,31 C11.94,31 13.1965,29.74175 13.1965,28.1965 C13.1965,26.66 11.94,25.40175 10.40175,25.40175 Z M2,3 L2,5.8035 L4.8035,5.8035 L9.84,16.44 L7.87825,19.8035 C7.74175,20.22 7.59825,20.78 7.59825,21.1965 C7.59825,22.74175 8.8635,24 10.40175,24 L27.1965,24 L27.1965,21.1965 L10.96175,21.1965 C10.81825,21.1965 10.68175,21.06 10.68175,20.9165 L10.68175,20.78 L11.94,18.40175 L22.3035,18.40175 C23.4165,18.40175 24.25825,17.84 24.68175,17 L29.72,7.90175 C30,7.62175 30,7.47825 30,7.1965 C30,6.3635 29.44,5.8035 28.59825,5.8035 L7.87825,5.8035 L6.62175,3 L2,3 Z M24.40175,25.40175 C22.8635,25.40175 21.59825,26.66 21.59825,28.1965 C21.59825,29.74175 22.8635,31 24.40175,31 C25.94,31 27.1965,29.74175 27.1965,28.1965 C27.1965,26.66 25.94,25.40175 24.40175,25.40175 Z" id="Fill-1" fill="#8F8E94"></path>
    </g>
</svg>