<?xml version="1.0" encoding="UTF-8"?>
<svg width="32px" height="32px" viewBox="0 0 32 32" version="1.1" xmlns="http://www.w3.org/2000/svg" xmlns:xlink="http://www.w3.org/1999/xlink">
    <!-- Generator: Sketch 50.2 (55047) - http://www.bohemiancoding.com/sketch -->
    <title>💟icons/shopping copy</title>
    <desc>Created with Sketch.</desc>
    <defs></defs>
    <g id="💟icons/shopping-copy" stroke="none" stroke-width="1" fill="none" fill-rule="evenodd">
        <path d="M8.6559078,20.5754996 L9,21.2655 L8.70983699,28.2435158 C8.69224344,28.6663173 8.34715932,29 7.9274723,29 L6.14676516,29 C5.72525092,29 5.3793315,28.6635801 5.36424386,28.2387782 L5,18 C5.5432073,18.3719517 6.13371357,18.6734715 6.75632676,18.8933999 C7.58593821,19.1864448 8.26054895,19.7838521 8.6559078,20.5754996 Z M28.541456,23.118499 C29.7403735,23.9220444 30.2720949,25.3978523 29.8643522,26.7872158 L29.3951739,28.3888475 C29.2961913,28.7261978 28.9883277,28.9631114 28.6382764,28.9639064 L16.9510588,29 C16.9481057,29 16.9449416,29 16.9419885,29 C15.4316741,29 14.0725494,28.1485948 13.3931716,26.7923038 L9.88912625,19.7871854 C9.30456498,18.6203194 8.30709304,17.7397638 7.08033175,17.3079131 C6.09794186,16.9620297 5.21458725,16.3647105 4.52576999,15.5804573 C3.83695273,14.7962042 3.35680565,13.8411294 3.13716671,12.8185316 C2.67020324,10.643908 3.41454986,8.38262797 5.07985076,6.91704929 L7.76941268,4.54992666 C8.24708125,4.0810284 8.91665044,3.89663855 9.56707702,4.05638302 C10.2276286,4.21867153 10.7427386,4.70511306 10.9450279,5.35760616 C11.9389667,8.56325476 15.4210745,14.4096692 17.5016064,17.9028473 C17.9655113,18.6816943 18.3660821,19.3543277 18.6849672,19.9042643 C19.095083,20.6116662 19.7502557,21.1284772 20.5297234,21.3595608 L22.2035146,21.8556484 C22.8139157,22.0365932 23.4573814,21.6845618 23.6375222,21.0708123 C23.7086082,20.8284926 23.8901202,20.6345096 24.1264759,20.5483832 C24.3628317,20.4622039 24.6258183,20.4941634 24.8350159,20.6343505 L28.541456,23.118499 Z" id="Combined-Shape" fill="#8F8E94" fill-rule="nonzero"></path>
    </g>
</svg>