<?xml version="1.0" encoding="UTF-8"?>
<svg width="32px" height="32px" viewBox="0 0 32 32" version="1.1" xmlns="http://www.w3.org/2000/svg" xmlns:xlink="http://www.w3.org/1999/xlink">
    <!-- Generator: Sketch 50.2 (55047) - http://www.bohemiancoding.com/sketch -->
    <title>💟icons/shopping copy 2</title>
    <desc>Created with Sketch.</desc>
    <defs></defs>
    <g id="💟icons/shopping-copy-2" stroke="none" stroke-width="1" fill="none" fill-rule="evenodd">
        <path d="M31,12.7289268 L30.167244,13.0450631 C30.1496089,13.051622 28.3867258,13.704227 26.0153048,13.704227 C24.0397924,13.704227 22.7111114,13.1166857 21.807437,12.5374086 L23.0862358,10.934427 L18.8100949,8 L16.5651429,11.1453594 C14.5417638,13.4527609 10.6771512,16.3648878 6.40642674,17.0134263 C4.07216547,17.3678663 2.69763311,17.9694435 1.94939978,18.9637643 C1.3424994,19.770371 1.23908197,20.7145822 1.21237734,21.7205778 L1,21.7205778 L1,25 L18.0053031,25 L18.0053031,24.1994275 C18.509164,24.0349316 19.0130248,23.8299022 19.5168856,23.5809284 L19.5168856,24.9998688 L30.2239284,24.9998688 L30.2239284,23.0564832 C30.7277892,22.8157736 30.9797196,22.3241227 30.9797196,21.7582256 L30.9797196,13.6618568 L31,12.7289268 Z" id="Shape" fill="#8F8E94" fill-rule="nonzero"></path>
    </g>
</svg>