<?xml version="1.0" encoding="UTF-8"?>
<svg width="32px" height="32px" viewBox="0 0 32 32" version="1.1" xmlns="http://www.w3.org/2000/svg" xmlns:xlink="http://www.w3.org/1999/xlink">
    <!-- Generator: Sketch 50.2 (55047) - http://www.bohemiancoding.com/sketch -->
    <title>💟icons/shopping copy 3</title>
    <desc>Created with Sketch.</desc>
    <defs></defs>
    <g id="💟icons/shopping-copy-3" stroke="none" stroke-width="1" fill="none" fill-rule="evenodd">
        <path d="M20.5,8 C19.1249912,8 18,6.87500879 18,5.5 C18,4.12499121 19.1249912,3 20.5,3 C21.8750088,3 23,4.12499121 23,5.5 C23,6.87500879 21.8750088,8 20.5,8 Z M7.5,16 C11.0749482,16 14,18.9249909 14,22.5 C14,26.0750091 11.0750091,29 7.5,29 C3.92499086,29 1,26.0750091 1,22.5 C1,18.9249909 3.92499086,16 7.5,16 Z M7.5,27.0500061 C10.0349921,27.0500061 12.0500061,25.0349921 12.0500061,22.5 C12.0500061,19.9650079 10.0349921,17.9499939 7.5,17.9499939 C4.96500792,17.9499939 2.94999391,19.9650079 2.94999391,22.5 C2.94999391,25.0349921 4.96500792,27.0500061 7.5,27.0500061 Z M24,14.6499714 C21.546981,14.6499714 19.452991,13.6856867 17.9572518,12.0142801 L17.0598195,11.0499955 L14.2478836,14.1357063 L16.880333,16.9642545 L16.880333,25 L14.4871615,25 L14.4871615,18.5714157 L10.7179458,14.9714398 C10.2991254,14.4571747 10,13.8143585 10,13.1071762 C10,12.399994 10.2991254,11.7571777 10.7179458,11.3071581 L14.0085496,7.77142771 C14.4273701,7.25716266 15.025677,7 15.6837753,7 C16.3418736,7 16.9401805,7.32140812 17.2991534,7.77142771 L19.6324774,10.214262 C20.7093962,11.3714036 22.2051354,12.0785256 24,12.0785256 L24,14.6499714 Z M24.5,16 C28.0750091,16 31,18.9249909 31,22.5 C31,26.0750091 28.0750091,29 24.5,29 C20.9249909,29 18,26.0750091 18,22.5 C18,18.9249909 20.9249909,16 24.5,16 Z M24.5,27.0500061 C27.0349921,27.0500061 29.0500061,25.0349921 29.0500061,22.5 C29.0500061,19.9650079 27.0349921,17.9499939 24.5,17.9499939 C21.9650079,17.9499939 19.9499939,19.9650079 19.9499939,22.5 C19.9499939,25.0349921 21.9650079,27.0500061 24.5,27.0500061 Z" id="Combined-Shape" fill="#8F8E94" fill-rule="nonzero"></path>
    </g>
</svg>