<?xml version="1.0" encoding="UTF-8"?>
<svg width="32px" height="32px" viewBox="0 0 32 32" version="1.1" xmlns="http://www.w3.org/2000/svg" xmlns:xlink="http://www.w3.org/1999/xlink">
    <!-- Generator: Sketch 50.2 (55047) - http://www.bohemiancoding.com/sketch -->
    <title>💟icons/smartwatch</title>
    <desc>Created with Sketch.</desc>
    <defs></defs>
    <g id="💟icons/smartwatch" stroke="none" stroke-width="1" fill="none" fill-rule="evenodd">
        <path d="M21.7633918,2.00023392 L22.7926316,6.11719298 L10.7809357,6.11719298 L11.7809357,2.00023392 C11.8978947,1.40959064 12.4242105,0.988538012 13.0265497,1.00023392 L20.5119298,1.00023392 C21.114269,0.988538012 21.6405848,1.40959064 21.7633918,2.00023392 Z M10.7516959,25.8247953 L22.7516959,25.8247953 L21.7516959,29.9417544 C21.6347368,30.5323977 21.1084211,30.9534503 20.5060819,30.9417544 L13.0207018,30.9417544 C12.4183626,30.9534503 11.8978947,30.5323977 11.7750877,29.9417544 L10.7516959,25.8247953 Z M21.7575439,7.24 C23.8277193,7.24 25.5002339,8.91251462 25.5060819,10.9826901 L25.5060819,20.9651462 C25.5060819,23.0294737 23.8277193,24.7078363 21.7633918,24.7078363 L11.7809357,24.7078363 C9.71660819,24.7078363 8.03824561,23.0294737 8.03824561,20.9651462 L8.03824561,10.9826901 C8.03824561,8.91836257 9.71660819,7.24 11.7809357,7.24 L21.7575439,7.24 Z M13.0265497,17.2166082 C13.7166082,17.2166082 14.2721637,16.6610526 14.2721637,15.9709942 C14.2721637,15.2867836 13.7166082,14.7253801 13.0265497,14.7253801 C12.3423392,14.7253801 11.7809357,15.2809357 11.7809357,15.9709942 C11.7809357,16.6552047 12.3364912,17.2166082 13.0265497,17.2166082 Z M16.7692398,17.2166082 C17.4592982,17.2166082 18.0148538,16.6610526 18.0148538,15.9709942 C18.0148538,15.2867836 17.4592982,14.7253801 16.7692398,14.7253801 C16.0850292,14.7253801 15.5236257,15.2809357 15.5236257,15.9709942 C15.5236257,16.6552047 16.0791813,17.2166082 16.7692398,17.2166082 Z M20.5119298,17.2166082 C21.2019883,17.2166082 21.7575439,16.6610526 21.7575439,15.9709942 C21.7575439,15.2867836 21.2019883,14.7253801 20.5119298,14.7253801 C19.8277193,14.7253801 19.2663158,15.2809357 19.2663158,15.9709942 C19.2663158,16.6552047 19.8218713,17.2166082 20.5119298,17.2166082 Z" id="Combined-Shape" fill="#8F8E94" fill-rule="nonzero"></path>
    </g>
</svg>