<?xml version="1.0" encoding="UTF-8"?>
<svg width="32px" height="32px" viewBox="0 0 32 32" version="1.1" xmlns="http://www.w3.org/2000/svg" xmlns:xlink="http://www.w3.org/1999/xlink">
    <!-- Generator: Sketch 50.2 (55047) - http://www.bohemiancoding.com/sketch -->
    <title>💟icons/spa</title>
    <desc>Created with Sketch.</desc>
    <defs>
        <path d="M20.4788333,12.9585 C20.2478333,9.378 18.7976667,5.88733333 16.077,3.16666667 C13.3306667,5.913 11.8163333,9.40366667 11.5211667,12.9585 C13.1638333,13.8311667 14.6781667,14.9605 16,16.3336667 C17.3218333,14.9733333 18.8361667,13.844 20.4788333,12.9585 L20.4788333,12.9585 Z M12.1371667,16.3593333 C11.9575,16.231 11.7521667,16.1155 11.5596667,15.9871667 C11.7521667,16.1283333 11.9575,16.231 12.1371667,16.3593333 L12.1371667,16.3593333 Z M20.3761667,16.0385 C20.2093333,16.154 20.0296667,16.2438333 19.8628333,16.3721667 C20.0296667,16.2438333 20.2093333,16.154 20.3761667,16.0385 L20.3761667,16.0385 Z M16,20.4275 C13.2408333,16.2181667 8.531,13.4333333 3.16666667,13.4333333 C3.16666667,20.2606667 7.47866667,26.0356667 13.4718333,28.1788333 C14.2803333,28.474 15.1273333,28.6921667 16,28.8333333 C16.8726667,28.6793333 17.7068333,28.4611667 18.5281667,28.1788333 C24.5213333,26.0356667 28.8333333,20.2606667 28.8333333,13.4333333 C23.469,13.4333333 18.7591667,16.2181667 16,20.4275 L16,20.4275 Z" id="path-1"></path>
    </defs>
    <g id="💟icons/spa" stroke="none" stroke-width="1" fill="none" fill-rule="evenodd">
        <mask id="mask-2" fill="white">
            <use xlink:href="#path-1"></use>
        </mask>
        <use id="Icon" fill="#8F8E94" xlink:href="#path-1"></use>
    </g>
</svg>