<?xml version="1.0" encoding="UTF-8"?>
<svg width="32px" height="32px" viewBox="0 0 32 32" version="1.1" xmlns="http://www.w3.org/2000/svg" xmlns:xlink="http://www.w3.org/1999/xlink">
    <!-- Generator: Sketch 50.2 (55047) - http://www.bohemiancoding.com/sketch -->
    <title>💟icons/toy</title>
    <desc>Created with Sketch.</desc>
    <defs></defs>
    <g id="💟icons/toy" stroke="none" stroke-width="1" fill="none" fill-rule="evenodd">
        <path d="M29.7199586,5.00047038 C30.4263075,4.99912275 30.9985937,4.42684881 31,3.72051499 L31,3.25054373 C30.9989453,3.09339837 30.9250585,2.94568642 30.8000192,2.85053204 C26.7130976,-0.214622747 20.9151768,0.613642274 17.8499563,4.70047626 C16.6490752,6.3015777 15.9999724,8.24896142 15.9999724,10.2503675 C15.9999724,10.5053625 16.009992,10.7553771 16.0300311,11.0003528 L4.99997172,11.0003528 C3.8954189,11.0003528 2.99998757,11.895765 2.99998757,13.0002941 C2.99998757,14.1048232 3.8954189,15.0002354 4.99997172,15.0002354 L6.30497412,15.0002354 C5.77704346,15.9118777 5.49936717,16.9467402 5.4999531,18.0001766 L5.4999531,22.4100902 C4.83725657,21.4072778 4.33457987,20.3074947 4.0099699,19.1501736 C3.81995002,18.4982723 3.21901141,18.0526756 2.54002579,18.0601754 C1.70389144,18.0478124 1.01523783,18.7140689 1.00000342,19.5501267 C0.999710453,19.6804366 1.01822611,19.8101021 1.05502306,19.9351387 C1.84516123,22.7495757 3.45104309,25.2670069 5.66999248,27.170036 C6.7191155,28.0822642 7.88624656,28.8491242 9.13992074,29.4499913 C13.479792,31.5166696 18.5200942,31.5166696 22.8599655,29.4499913 C23.1600246,29.3049746 23.4549275,29.1499972 23.7449671,28.9899808 C24.4715896,28.5862192 25.1624111,28.1211697 25.8099905,27.5999885 C28.2936669,25.6565305 30.0925569,22.9714073 30.9449804,19.9351387 C31.0691993,19.4985066 30.9782617,19.0288283 30.6999994,18.670183 C30.4031044,18.2861671 29.9453692,18.0609957 29.459919,18.0601754 C29.0478284,18.0571872 28.651734,18.2191957 28.3599366,18.5101666 C28.1843894,18.6886983 28.0570649,18.9089479 27.9899163,19.1501736 C27.5822789,20.5838174 26.9071018,21.9274043 25.9999517,23.110096 L25.9999517,18.0001766 C25.9999517,17.8701596 25.9949713,17.7351623 25.9849517,17.6052039 C26.0017682,17.5363576 26.0034674,17.4647574 25.9899322,17.395208 L25.9349126,17.1451933 L25.9349126,17.135174 C25.9337407,17.1267367 25.9320415,17.1184165 25.9299321,17.110155 L25.8649515,16.7701421 C25.844971,16.6901632 25.8399319,16.6101257 25.8149709,16.5301468 L25.8149709,16.5201275 L24.7149298,11.0402544 C24.7050275,10.9942592 24.6999884,10.9473265 24.6999884,10.9002767 C24.7002814,10.570869 24.9251646,10.2841169 25.2449699,10.2053098 C25.5498337,10.1294324 25.8688773,10.2586291 26.0349909,10.525284 L26.664992,11.5802438 C27.2079227,12.4801676 28.3776319,12.769615 29.277575,12.226696 C29.4628487,12.1149599 29.6276733,11.9724041 29.7650173,11.8052394 C30.1256625,11.3638613 30.2688658,10.7837946 30.155018,10.2252899 L29.2299967,5.59536107 C29.1977115,5.44975845 29.236735,5.29753487 29.3349969,5.18538863 C29.4278682,5.06767609 29.5699583,4.99935712 29.7199586,5.00047038 Z M9.99996138,12.0003528 L15.9999724,12.0003528 L15.9999724,15.000294 C15.9991521,15.2760893 15.7757923,15.4995029 15.499991,15.5002646 L10.5000014,15.5002646 C10.2242001,15.4994443 10.0007817,15.2760893 10.00002,15.000294 L9.99996138,12.0003528 Z M15.9999724,28.0000002 C13.3091667,28.0123632 10.6853923,27.160544 8.51495865,25.5700478 C8.7624591,21.7500445 11.9219571,18.7718412 15.7499524,18.7501619 C19.7196863,18.7532087 22.9500829,21.9456852 22.9999462,25.915041 C20.922501,27.2833541 18.4875746,28.0086133 15.9999724,28.0000002 Z M27.5000131,6.50044099 C27.5000131,6.77658792 27.2761846,7.00041166 27.0000317,7.00041166 C26.7238789,7.00041166 26.5000503,6.77658792 26.5000503,6.50044099 L26.5000503,6.00047032 C26.5000503,5.72432338 26.7238789,5.50049964 27.0000317,5.50049964 C27.2761846,5.50049964 27.5000131,5.72432338 27.5000131,6.00047032 L27.5000131,6.50044099 Z" id="Shape" fill="#8F8E94" fill-rule="nonzero"></path>
    </g>
</svg>