<?xml version="1.0" encoding="UTF-8"?>
<svg width="32px" height="32px" viewBox="0 0 32 32" version="1.1" xmlns="http://www.w3.org/2000/svg" xmlns:xlink="http://www.w3.org/1999/xlink">
    <!-- Generator: Sketch 50.2 (55047) - http://www.bohemiancoding.com/sketch -->
    <title>💟icons/watch</title>
    <desc>Created with Sketch.</desc>
    <defs></defs>
    <g id="💟icons/watch" stroke="none" stroke-width="1" fill="none" fill-rule="evenodd">
        <path d="M26.7630227,14.9285714 C26.4255227,11.5910714 24.5261136,8.70825893 21.7959773,6.98459821 L20.2727273,1 L11.5454545,1 L10.0209091,6.98948661 C7.00365909,8.89542411 5,12.2147768 5,16 C5,19.7851562 7.00359091,23.104442 10.0209091,25.0104464 L11.5454545,31 L20.2727273,31 L21.7960455,25.0153348 C24.5261136,23.2915402 26.4255227,20.4087946 26.7630227,17.0714286 L29,17.0714286 L29,14.9285714 L26.7630227,14.9285714 Z M15.9090909,24.5714286 C11.0968182,24.5714286 7.18181818,20.7262723 7.18181818,16 C7.18181818,11.2737277 11.0968182,7.42857143 15.9090909,7.42857143 C20.7213636,7.42857143 24.6363636,11.2737277 24.6363636,16 C24.6363636,20.7262723 20.7213636,24.5714286 15.9090909,24.5714286 Z M16.9235393,16.4386411 L16.9235393,11 L15,11 L15,17.0985947 L17.4274465,21 L19,19.7884895 L16.9235393,16.4386411 Z" id="Combined-Shape" fill="#8F8E94" fill-rule="nonzero"></path>
    </g>
</svg>